<svg width="40" height="40" viewBox="0 0 40 40" fill="none" xmlns="http://www.w3.org/2000/svg">
<path d="M40 20C40 31.0457 31.0457 40 20 40C8.9543 40 0 31.0457 0 20C0 8.9543 8.9543 0 20 0C31.0457 0 40 8.9543 40 20Z" fill="black"/>
<path d="M31 20C31 26.0751 26.0751 31 20 31C13.9249 31 9 26.0751 9 20C9 13.9249 13.9249 9 20 9C26.0751 9 31 13.9249 31 20Z" stroke="white" stroke-width="2"/>
<line x1="9" y1="20" x2="14" y2="20" stroke="white" stroke-width="2"/>
<line x1="26" y1="20" x2="31" y2="20" stroke="white" stroke-width="2"/>
<line x1="20.0288" y1="26.0057" x2="20.0002" y2="31.0056" stroke="white" stroke-width="2"/>
<line x1="20.0288" y1="9.00572" x2="20.0002" y2="14.0056" stroke="white" stroke-width="2"/>
</svg>
