<svg width="40" height="40" viewBox="0 0 40 40" fill="none" xmlns="http://www.w3.org/2000/svg">
<path d="M40 20C40 31.0457 31.0457 40 20 40C8.9543 40 0 31.0457 0 20C0 8.9543 8.9543 0 20 0C31.0457 0 40 8.9543 40 20Z" fill="black"/>
<path d="M14.208 20.6543C14.208 20.8301 14.2402 20.9971 14.3047 21.1553C14.375 21.3076 14.4834 21.4541 14.6299 21.5947L21.3975 28.2129C21.6201 28.4355 21.8926 28.5469 22.2148 28.5469C22.4375 28.5469 22.6367 28.4941 22.8125 28.3887C22.9941 28.2832 23.1377 28.1426 23.2432 27.9668C23.3545 27.791 23.4102 27.5918 23.4102 27.3691C23.4102 27.0469 23.2871 26.7598 23.041 26.5078L17.0205 20.6543L23.041 14.8008C23.2871 14.5547 23.4102 14.2676 23.4102 13.9395C23.4102 13.7227 23.3545 13.5264 23.2432 13.3506C23.1377 13.1689 22.9941 13.0254 22.8125 12.9199C22.6367 12.8145 22.4375 12.7617 22.2148 12.7617C21.8926 12.7617 21.6201 12.873 21.3975 13.0957L14.6299 19.7139C14.4893 19.8545 14.3838 20.001 14.3135 20.1533C14.249 20.3057 14.2139 20.4727 14.208 20.6543Z" fill="white"/>
</svg>
